# xmcd
#
# Track frame offsets: 
#        150
#        23908
#        41383
#        59877
#        82253
#        98971
#        114553
#        131013
#        154415
#
# Disc length: 2432 seconds
#
# Revision: 0
# Processed by: cddbd v1.5.2PL0 Copyright (c) Steve Scherf et al.
# Submitted via: ExactAudioCopy v0.99pb4
#
DISCID=7f097e09
DTITLE=The River Babys - The River Babys
DYEAR=1900
DGENRE=Blues
TTITLE0=The Well Runs Dry
TTITLE1=Eternity
TTITLE2=She Flew Away
TTITLE3=Little Things
TTITLE4=I Love Ya
TTITLE5=Me and My Guitar
TTITLE6=Yeah
TTITLE7=Forever
TTITLE8=When The Levee Breaks
EXTD=
EXTT0=
EXTT1=
EXTT2=
EXTT3=
EXTT4=
EXTT5=
EXTT6=
EXTT7=
EXTT8=
PLAYORDER=
